<?xml version="1.0" encoding="utf-8"?>
<!-- Generator: Adobe Illustrator 21.0.0, SVG Export Plug-In . SVG Version: 6.00 Build 0)  -->
<svg version="1.1" id="Layer_1" xmlns="http://www.w3.org/2000/svg" xmlns:xlink="http://www.w3.org/1999/xlink" x="0px" y="0px"
	 viewBox="0 0 512 512" style="enable-background:new 0 0 512 512;" xml:space="preserve">
<g>
	<path d="M512,254.4c0-1.3,0-2.7-0.1-4.3c-0.1-4.6-0.2-9.8-0.3-15.4c-0.5-15.9-1.3-31.8-2.5-46.8c-1.7-20.6-4.2-37.8-7.7-50.7
		c-7.4-27.4-28.8-48.9-56.2-56.3c-16.2-4.3-47.8-7-92.4-8.7c-21.2-0.8-43.9-1.3-66.6-1.6c-7.9-0.1-15.3-0.2-21.9-0.2h-16.8
		c-6.6,0.1-14,0.1-21.9,0.2c-22.7,0.3-45.4,0.8-66.6,1.6c-44.6,1.7-76.3,4.4-92.4,8.7c-27.4,7.4-48.8,28.8-56.2,56.3
		c-3.5,12.9-5.9,30.1-7.7,50.7c-1.3,15-2.1,30.9-2.5,46.8c-0.2,5.5-0.2,10.7-0.3,15.4c0,1.7-0.1,3.1-0.1,4.3v3.2
		c0,1.3,0,2.7,0.1,4.3c0.1,4.6,0.2,9.8,0.3,15.4c0.5,15.9,1.3,31.8,2.5,46.8c1.7,20.6,4.2,37.8,7.7,50.7c7.3,27.4,28.8,49,56.2,56.3
		c16.1,4.3,47.8,7,92.4,8.7c21.2,0.8,43.9,1.3,66.6,1.6c7.9,0.1,15.3,0.2,21.9,0.2h16.8c6.6-0.1,14-0.1,21.9-0.2
		c22.7-0.3,45.4-0.8,66.6-1.6c44.6-1.7,76.3-4.4,92.4-8.7c27.4-7.3,48.9-28.9,56.2-56.3c3.5-12.9,5.9-30.1,7.7-50.7
		c1.3-15,2.1-30.9,2.5-46.8c0.2-5.5,0.2-10.7,0.3-15.4c0-1.7,0.1-3.1,0.1-4.3V254.4z M470.9,257.4c0,1.2,0,2.5-0.1,4.1
		c-0.1,4.5-0.2,9.4-0.3,14.7c-0.4,15.2-1.2,30.4-2.4,44.5c-1.5,18.4-3.7,33.5-6.4,43.6c-3.5,13.2-13.9,23.7-27.1,27.1
		c-12,3.2-42.2,5.8-83.3,7.3c-20.8,0.8-43.2,1.3-65.5,1.6c-7.8,0.1-15.1,0.2-21.6,0.2h-16.3l-21.6-0.2c-22.3-0.3-44.7-0.8-65.5-1.6
		c-41.1-1.6-71.4-4.1-83.3-7.3c-13.1-3.5-23.5-13.9-27.1-27.1c-2.7-10.1-4.9-25.2-6.4-43.6c-1.2-14.1-1.9-29.3-2.4-44.5
		c-0.2-5.3-0.2-10.3-0.3-14.7c0-1.5-0.1-2.9-0.1-4.1v-2.7c0-1.2,0-2.5,0.1-4.1c0.1-4.5,0.2-9.4,0.3-14.7c0.4-15.2,1.2-30.4,2.4-44.5
		c1.5-18.4,3.7-33.5,6.4-43.6c3.5-13.2,13.9-23.7,27.1-27.1c12-3.2,42.2-5.8,83.3-7.3c20.8-0.8,43.2-1.3,65.5-1.6
		c7.8-0.1,15.1-0.2,21.6-0.2h16.3l21.6,0.2c22.3,0.3,44.7,0.8,65.5,1.6c41.1,1.6,71.4,4.1,83.3,7.3c13.1,3.5,23.5,13.9,27.1,27.1
		c2.7,10.1,4.9,25.2,6.4,43.6c1.2,14.1,1.9,29.3,2.4,44.5c0.2,5.3,0.2,10.3,0.3,14.7c0,1.5,0.1,2.9,0.1,4.1V257.4z M205.1,332.6
		l132.6-77.1l-132.6-76V332.6z"/>
</g>
</svg>
