<?xml version="1.0" encoding="UTF-8"?>
<svg id="Layer_2" data-name="Layer 2" xmlns="http://www.w3.org/2000/svg" viewBox="0 0 1000 1000">
  <defs>
    <style>
      .cls-1 {
        fill: #fff;
      }

      .cls-2 {
        fill: #e65c29;
      }

      .cls-3 {
        fill: #4f0800;
      }
    </style>
  </defs>
  <path class="cls-3" d="m713.27026,696.17822c-3.25903-13.32111,9.59814-62.17822,16.73438-71.50507l-37.77075-9.09314c1.5061,38.39398,1.58643,47.13696-17.41052,79.49567l-117.77405,33.60413,89.31909,1.1059-50.91125,74.00244,93.17371-64.19873,62.52319,44.83911-37.88379-88.25031Z"/>
  <path class="cls-3" d="m588.7146,569.21912c-3.62036-9.76044,4.15247-47.35919,9.60876-54.87653l-32.63184-4.08276c3.74255,28.70404,4.37195,35.25952-9.66956,60.9223l-97.77307,33.76666,75.85742-5.65277-38.44727,59.23126,74.93591-54.94128,55.92896,29.1123-37.80933-63.47919Z"/>
  <path class="cls-2" d="m918.93982,371.39286c0,108.84709-71.35714,147.53571-180.32143,210.21429-170.2973-41.19064-272.89286-100.40291-272.89286-209.25s134.84716-191.93115,243.69425-191.93115,209.52004,82.11978,209.52004,190.96687Z"/>
  <path class="cls-2" d="m502.00359,183.33031c21.2052,68.39157-160.63269,140.34447-186.599,57.02409-14.15698-45.42694,16.59254-95.15833,68.12042-110.9051,51.52788-15.74677,104.3874,8.43361,118.47858,53.88101Z"/>
  <path class="cls-2" d="m714.07759,645.73381l-.00006-.00002c-22.10544-7.46581-37.14982-27.99878-37.60658-51.32645l-1.6476-84.14749,128.75278,5.04615-61.37062,119.04454c-5.27216,10.22675-17.2271,15.06488-28.12793,11.38327Z"/>
  <path class="cls-3" d="m341.23444,243.30546l-236.38855,175.77486,295.26125-145.72318c-28.69141-7.41864-57.77846-15.02113-58.8727-30.05168Z"/>
  <path class="cls-2" d="m393.11531,268.46571c.25336-2.96966.8068-5.89762,1.65593-8.75456l39.31683-132.28258c3.20621-7.00417,114.58244,39.81141,138.08977,109.76558,3.40111,10.12119,2.91688,21.1424-1.26605,30.96631-18.35617,43.11083-78.95138,182.67093-87.29797,166.31539-7.53894-14.77291-15.9443-40.18594-45.59019-61.64702-30.72721-22.24386-47.71088-58.90923-45.45499-96.77561.17931-3.00977.37574-5.58396.54668-7.58752Z"/>
  <circle class="cls-1" cx="400.10714" cy="229.06944" r="23.88885"/>
  <circle cx="400.10714" cy="229.06944" r="20.31118"/>
</svg>