<?xml version="1.0" encoding="UTF-8"?>
<svg xmlns="http://www.w3.org/2000/svg" xmlns:xlink="http://www.w3.org/1999/xlink" viewBox="0 0 868.67015 1094.47619">
  <defs>
    <style>
      .cls-1 {
        fill: #d91c5c;
        filter: url(#drop-shadow-1);
        stroke-width: 12px;
      }

      .cls-1, .cls-2, .cls-3, .cls-4, .cls-5, .cls-6, .cls-7, .cls-8, .cls-9, .cls-10, .cls-11, .cls-12, .cls-13, .cls-14, .cls-15, .cls-16, .cls-17, .cls-18 {
        stroke-miterlimit: 10;
      }

      .cls-1, .cls-2, .cls-4, .cls-7, .cls-9, .cls-10, .cls-11, .cls-12, .cls-13, .cls-14, .cls-15, .cls-16, .cls-17 {
        stroke: #000;
      }

      .cls-2, .cls-7, .cls-10, .cls-13 {
        fill: none;
      }

      .cls-3 {
        filter: url(#drop-shadow-4);
      }

      .cls-3, .cls-4, .cls-5, .cls-7, .cls-11, .cls-16 {
        stroke-width: 3px;
      }

      .cls-3, .cls-5, .cls-18 {
        stroke: #929497;
      }

      .cls-4 {
        filter: url(#drop-shadow-5);
      }

      .cls-4, .cls-11, .cls-15, .cls-16, .cls-18 {
        fill: #fff;
      }

      .cls-5 {
        filter: url(#drop-shadow-3);
      }

      .cls-6, .cls-8 {
        stroke: #231f20;
      }

      .cls-6, .cls-8, .cls-12, .cls-14, .cls-17 {
        stroke-width: 6px;
      }

      .cls-6, .cls-14 {
        fill: #f398c0;
      }

      .cls-8, .cls-17 {
        fill: #f4eb41;
      }

      .cls-9, .cls-10, .cls-15, .cls-18 {
        stroke-width: 2px;
      }

      .cls-11 {
        filter: url(#drop-shadow-2);
      }

      .cls-19 {
        fill: #ec1c24;
      }

      .cls-20 {
        fill: #bbbdbf;
      }

      .cls-12 {
        fill: #652d90;
      }

      .cls-13 {
        stroke-width: 5px;
      }

      .cls-21 {
        fill: #00a14b;
      }
    </style>
    <filter id="drop-shadow-1" filterUnits="userSpaceOnUse">
      <feOffset dx="-17" dy="11"/>
      <feGaussianBlur result="blur" stdDeviation="0"/>
      <feFlood flood-color="#000" flood-opacity=".9"/>
      <feComposite in2="blur" operator="in"/>
      <feComposite in="SourceGraphic"/>
    </filter>
    <filter id="drop-shadow-2" filterUnits="userSpaceOnUse">
      <feOffset dx="-11" dy="15"/>
      <feGaussianBlur result="blur-2" stdDeviation="0"/>
      <feFlood flood-color="#000" flood-opacity=".9"/>
      <feComposite in2="blur-2" operator="in"/>
      <feComposite in="SourceGraphic"/>
    </filter>
    <filter id="drop-shadow-3" filterUnits="userSpaceOnUse">
      <feOffset dx="-11" dy="15"/>
      <feGaussianBlur result="blur-3" stdDeviation="0"/>
      <feFlood flood-color="#000" flood-opacity=".9"/>
      <feComposite in2="blur-3" operator="in"/>
      <feComposite in="SourceGraphic"/>
    </filter>
    <filter id="drop-shadow-4" filterUnits="userSpaceOnUse">
      <feOffset dx="-11" dy="15"/>
      <feGaussianBlur result="blur-4" stdDeviation="0"/>
      <feFlood flood-color="#000" flood-opacity=".9"/>
      <feComposite in2="blur-4" operator="in"/>
      <feComposite in="SourceGraphic"/>
    </filter>
    <filter id="drop-shadow-5" filterUnits="userSpaceOnUse">
      <feOffset dx="-11" dy="15"/>
      <feGaussianBlur result="blur-5" stdDeviation="0"/>
      <feFlood flood-color="#000" flood-opacity=".9"/>
      <feComposite in2="blur-5" operator="in"/>
      <feComposite in="SourceGraphic"/>
    </filter>
  </defs>
  <g id="circle">
    <circle class="cls-1" cx="434.3499" cy="684.99351" r="280.68987"/>
    <circle class="cls-12" cx="434.3499" cy="684.99351" r="232.83031"/>
  </g>
  <g id="spamton">
    <path class="cls-11" d="m563.6358,158.112c6.00232-32.84242-15.8562-36.23024-22.60413-46.86849,8.34021-19.30656,40.33069,1.44981,42.66711,5.48521,8.77905,3.92194,19.83132,5.74469,29.01144,7.47443,14.33234-4.44033,33.64282-17.78107,39.21427-20.3525s36.42859-9,41.57145-3.85714c3.54,3.54,3.22189,17.84211,2.67974,26.41322-.2662,4.20844-2.08001,8.18268-5.14801,11.07563-25.14987,23.71493-52.50695,37.24318-78.31747,44.79687-20.07037-.0683-41.99872-9.46892-49.0744-24.16722Z"/>
    <path class="cls-5" d="m237.92452,430.42208l176.78571,20.57143,52.07143-64.92857,97.71431-221.14286c15.52441,10.83859,31.56091,16.94646,48.21423,17.35715l-36.64282,236.57143c23.45068,107.20511-28.20306,176.4881-95.78571,238.5l-120.21429-48.21429c-6.58484.33795,28.78937-34.71808,20.44766-59.58325-1.59589-4.75702-7.54446-6.61539-12.29588-8.22786l-137.36608-46.61745s16.71429-37.28571,7.07143-64.28571Z"/>
    <path class="cls-18" d="m381.92452,444.56494l125.8591,100.45649c1.09747,8.55774,51.41432-108.35517-10.14482-142.88507-57.27682-32.12787-115.71428,42.42858-115.71428,42.42858Z"/>
    <path class="cls-10" d="m642.9245,129.88636c15.7254-6.68104,31.45087-17.14286,47.17627-31.38546"/>
    <path class="cls-10" d="m657.38879,142.36564c15.29913-8.79938,32.71197-18,39.11983-31.82143"/>
    <path class="cls-2" d="m618.77014,121.95084c20.63989,1.49834,42.93121,18.25695,47.74249,35.17964"/>
    <path class="cls-2" d="m642.9245,109.00933c9.39233-.5259,17.12628,2.41583,23.58813,8.01778"/>
    <path class="cls-2" d="m679.27484,129.05744c-2.55817-4.88963-6.5293-9.04647-12.76221-12.03033"/>
    <path class="cls-2" d="m675.50336,131.42349c3.95831,3.3447,7.20233,7.14242,9.3717,11.62158"/>
    <path class="cls-2" d="m557.20532,126.45493c3.85455-8.8847,12.29236-12.57042,25.31311-11.05727"/>
    <path class="cls-2" d="m601.77387,122.10244c-.22913,16.9707-18.93939,30.99388-37.18732,28.21806"/>
    <path d="m601.77387,154.85065c7.95895-7.04724,18.33328-12.10874,29.14287-11.80561,0,.00003-1.98113.26282-1.98113.26282-9.90396,1.39859-18.93048,6.02841-27.16174,11.54279h0Z"/>
    <polygon class="cls-20" points="446.21023 488.92208 442.99594 455.63144 414.38863 454.27377 419.6388 472.85065 446.21023 488.92208"/>
    <path class="cls-7" d="m499.58277,443.87324c6.89422,10.94163,1.91317,35.40598,1.91317,35.40598-5.46429,12.53571-55.28571,9.64286-55.28571,9.64286l-27-16.39286-4.8216-16.96915"/>
    <path class="cls-3" d="m493.84119,160.0882s38.5119-40.80902,35.29761-60.73755c.17139-3.21429-40.5-31.5-70.07141-30.85718-106.71429,4.5-196.71429,154.28571-264.85718,76.5-1.67328-.27887-.19757,14.44537,6.09985,30.47205,7.20514,21.30444,22.33301,44.46857,53.04303,38.95654,0,0-52.07141,21.21429-68.78571-7.07141,0,0,7.16376,94.23834,64.51001,78.79938-24.01001,19.55774-31.08142,34.34344-27.86713,67.12915,49.35388-49.16492,109.01477-7.25848,98.72821,35.63477-2.03107,8.46924-10.64117,13.70496-19.13739,11.78967-8.5473-1.92676-19.13464-6.37323-25.59088-16.56726-16.71423,58.5,93.67089,75.71332,114.2423,68.64191,0-1.28571,108.82502-257.35657,108.82502-257.35657,0,0,45.06366-46.90497-4.43634-35.3335Z"/>
    <path class="cls-16" d="m299.63879,215.24613c10.30688-18.74214,37.18997-26.47545,68.86325-39.39548,93.88351-27.88296,121.58774-30.63144,120.77963-14.78571l14.78571,73.28571c26.60315,4.80872,29.78011,35.72842,15.10713,65.25-3.83841,45.6074-8.73184,85.74981-13.56892,138.95992-.11932,1.31256-.68143,2.54561-1.58864,3.50165-4.64082,4.89066-21.92699,26.11206-61.02102,13.56922l-28.60731-.07137-23.46574-.05855-52.0698-96.43658c-5.16345-1.14545-82.14355-35.64258-17.35715-87.75002l5.78571-15.75c.01544-2.08331-27.52402-3.03737-25.07141-7.71428,10.72443-9.05618,17.84586-19.84969,21.85715-32.14285-8.87991,1.46283-16.99652,1.25133-24.42859-.46167Z"/>
    <circle class="cls-19" cx="352.35309" cy="307.49289" r="27.7146"/>
    <ellipse class="cls-19" cx="507.78362" cy="264.62851" rx="18.40534" ry="27.54595"/>
    <ellipse class="cls-17" cx="481.10448" cy="226.27184" rx="27.4761" ry="46.95743" transform="translate(-28.32836 74.1579) rotate(-8.56308)"/>
    <path class="cls-16" d="m453.05692,242.28302c59.20544,25.51889,138.42404,30.10909,228.89449,6.85335-24.42858,23.78571-177.83868,86.98963-255.34833,78.80381"/>
    <path class="cls-9" d="m499.35326,446.82195l8.43037-125.73979c-47.26404,9.18326-91.96729,9.80518-131.12915-7.0892,10.8934,13.42712,38.48306,89.01764,66.34146,141.63849,0,0,39.21464,12.30467,56.35732-8.80949Z"/>
    <path class="cls-15" d="m475.13879,416.24311c1.36652-8.41083,7.28977-16.74976,12.4306-16.74976s8.11969,1.29639,14.97716,6.30001l-3.19328,41.02861c-13.17023,11.54837-32.01465,18.51575-56.35733,8.80948l-19.07141-46.63794c3.26584-5.38275,16.71427,25.92858,51.21426,7.2496Z"/>
    <path class="cls-15" d="m406.63432,374.70779s68.1761,15.61366,98.60468-15.67206c0-6.85714,2.54464-37.95358,2.54464-37.95358,0,0-52.5734,21.91135-123.71626-2.08865,6.85714,12.42857,22.56694,55.71429,22.56694,55.71429Z"/>
    <line class="cls-10" x1="485.22486" y1="413.70779" x2="470.7071" y2="418.42208"/>
    <ellipse class="cls-14" cx="406.63432" cy="243.35065" rx="40.86163" ry="48.82381" transform="translate(-31.70151 63.25982) rotate(-8.56308)"/>
    <line class="cls-13" x1="368.50205" y1="259.00184" x2="313.1388" y2="272.92208"/>
    <line class="cls-13" x1="447.35885" y1="242.28302" x2="455.17289" y2="240.40836"/>
    <path d="m351.15535,315.26955c3.6241-3.97335,9.08666-6.56123,14.15279-8.10638,2.65295-.80914,5.44812-1.41913,8.23227-1.44157,1.11688-.009,2.23304.04988,3.31187.29409.67948.15381.70877.1624,1.34372.41977.70583.2861-.38139-.24087.27376.12343.09072.05044.86809.57929.44056.26355.72697.53688,2.2057,1.41951,3.11287.78111.88867-.62538-.09942-1.85609-.67571-2.2817-5.24086-3.8705-12.13444-3.44456-18.11955-1.78216-5.9652,1.65686-12.14084,4.53824-16.37155,9.17667-1.10561,1.21216,3.00117,3.97607,4.29898,2.55319h0Z"/>
    <path d="m365.18809,306.44373c-1.01468-.95322-.02263-2.15658,1.16563-1.41401,5.90341,3.6892,14.16058,8.82942,17.1791,10.59828-5.30473,1.4905-2.38275,2.29407-2.25116,6.90012-3.0281-4.4673-10.77583-11.08879-16.09357-16.0844Z"/>
    <path class="cls-4" d="m233.21024,427.42209s-42.42858-4.28573-30-60.85716c-15.85714-12-56.14286,43.44859-21.85714,63.29572-10.72713,11.56603-55.28154,60.69701-69.1935,78.3061-3.25172,4.11587-5.2175,9.22985-4.91436,14.46648,1.07193,18.5173,15.83437,31.91858,32.43896,22.65836.16071,1.125.31176,6.63581,6.63319,6.63048,36.74397-1.26132,121.17623-77.43299,86.89286-124.49999Z"/>
    <path class="cls-2" d="m155.63881,460.22797c10.66997,8.55139,24.48727,30.54428,41.45195,65.97873"/>
    <line class="cls-10" x1="110.18675" y1="534.95833" x2="172.35807" y2="480.56169"/>
    <line class="cls-10" x1="139.68418" y1="545.29161" x2="184.56738" y2="501.42959"/>
    <path class="cls-2" d="m168.23103,411.13636c12.17932,8.95468,24.35866,7.23758,36.53798-5.15125"/>
    <path class="cls-2" d="m180.78259,430.47675c3.78479,23.79702,46.85621,29.06422,52.42764-3.05466"/>
    <path class="cls-2" d="m129.24646,487.92716c5.63013,4.42212,10.17209,10.69492,14.0925,18.02472"/>
    <path class="cls-2" d="m141.27241,507.76001c9.25119,4.3865,14.56193,13.23955,16.55531,20.02478"/>
    <path class="cls-2" d="m164.4291,521.02154c5.63013,4.42212,10.17209,10.69492,14.0925,18.02472"/>
  </g>
  <g id="text">
    <g>
      <path class="cls-8" d="m703.28321,597.88055c14.25391,45.1391,28.33655,90.29547,42.24823,135.46863,13.49017-1.50262,26.90668-2.99127,40.24902-4.46442,5.29596-5.31561,10.46271-10.61444,15.50018-15.89496-10.32172-15.72943-20.43707-31.48346-30.34637-47.26068,27.73529,25.30457,57.03766,50.45215,87.90942,75.39032,9.79504-6.97705,19.28809-13.90674,28.47858-20.78247-21.07965-43.12451-42.25848-86.23352-63.53625-129.32709-.08942-.01788-44.80573-7.13519-42.93652-1.7804,1.8681,5.32343,21.29633,52.8476,21.26715,52.85144-14.34106-13.12531-28.27893-26.29706-41.81409-39.50848-8.78448-9.44794-17.39398-18.914-25.82892-28.39612-9.75,6.8454-19.86267,13.76434-30.33765,20.74731-.28192.98535-.56598,1.97095-.85278,2.95691Z"/>
      <path d="m731.05476,567.41729c5.05072,2.47406,13.64764,11.7171,26.29034,27.66949,8.32202,9.56311,13.88904,15.40588,16.48053,17.54877,1.77039-3.41199,4.7937-6.37012,9.04944-8.86566-3.09784-5.72272-5.98663-12.30475-8.70923-19.73987,18.27289,1.15479,35.92242,2.14917,52.9079,2.97882,1.9422,1.84052,10.32281,17.66388,25.01227,47.49042,4.55261,8.20764,15.4093,28.91736,32.55719,62.13116,4.71106,7.88269,9.32617,16.16309,13.81824,24.8446,1.995,3.85315.95996,7.04089-3.17377,9.578-3.87543,1.78467-7.78021,3.57471-11.71436,5.36993.9071,10.84082-2.17493,18.52649-9.2085,23.04907-8.05597,5.8208-20.07025,8.35205-35.68561,7.54822-7.61041-1.14191-15.64142-4.78314-23.96112-10.94122-2.77655-1.45032-9.76947-6.90845-20.66858-16.41333-.46832,9.5105-3.96417,18.18604-10.65033,26.04572-9.24512,5.91309-15.63013,8.88025-18.83704,8.86469-15.36646,2.25952-25.75916,1.22375-30.92694-3.13428-3.64545-1.84955-8.03973-8.84369-13.12585-20.98712-9.50391-26.83777-17.07996-51.92346-23.03882-75.23151-3.6582-14.68414-6.9624-30.07941-10.01868-46.17731-1.44055-6.1662,2.84961-11.35956,12.61127-15.53082-2.45251-7.82721-4.02393-13.84137-4.72797-18.04297,5.88184-7.53815,18.18787-16.97882,35.7196-28.05481Zm17.61853,161.9787c7.18329-3.85541,21.05353-8.66339,41.11005-14.33685-1.12122-2.86823-5.18298-11.86542-12.10284-26.9989-6.9187-15.1333-13.18225-27.87988-18.77966-38.23938,7.74561,6.95807,21.21057,18.9953,41.33984,36.0083,14.28558,12.26465,32.68817,28.5188,56.0202,48.64874,20.59247-6.99829,30.6684-11.66125,31.0614-14.14093-5.46558-10.11755-8.91443-16.61731-10.36749-19.49951-2.69873-5.35541-5.39734-10.71075-8.09601-16.0661-13.37982-26.31598-21.88763-42.55621-25.52277-48.71979-2.29578-4.56744-6.22412-12.38422-11.7865-23.45068-5.56226-11.06567-8.63904-16.9314-9.22595-17.59521-9.58911-.40686-21.552-.95398-35.88-1.61322,7.67242,16.27319,13.29803,28.49939,16.83978,36.67804,3.54413,8.18158,8.70636,19.42157,15.52258,33.71954-6.84259-5.79492-14.14459-11.99304-21.8598-18.59698-19.47528-16.29736-38.08685-35.73645-55.76703-58.32416-3.34296-4.46631-5.85956-7.35889-7.58221-8.67212-15.2431,10.23651-24.68683,18.17657-27.22339,23.59637,13.57544,43.61273,27.52161,86.16278,42.2998,127.60284Z"/>
      <path class="cls-8" d="m671.19386,538.17242c-9.58661-.97574-19.14948-1.9321-28.68854-2.86877-8.03632,10.87091-16.58453,21.81403-25.64429,32.81696-2.60504,10.40717-5.41742,20.83282-8.43677,31.27454.48438,6.08484.94983,12.17078,1.39642,18.25787,3.00714,14.15741,6.01422,28.31476,9.02142,42.47211,5.56006,12.65588,11.24561,25.30542,17.05664,37.94812,20.552,5.90942,41.46948,11.81885,62.75281,17.71576,9.76947-3.3147,19.41852-6.61426,28.94727-9.89624.00006-.0249,16.59552-25.85803,15.10272-59.47144-.68384-33.6908-19.45593-75.16211-71.50769-108.2489Zm6.69421,116.72662c-5.94037-.09326-12.67584-7.30933-15.04291-16.12134-2.36731-8.81158.31824-15.86761,5.99731-15.75287,5.67902.11456,12.41425,7.33868,15.0426,16.12939,2.62903,8.7912-.05603,15.83795-5.99701,15.74481Z"/>
      <path d="m658.6753,531.46014c6.7699,1.83496,13.18469,4.32153,19.27277,7.45197,6.22162,3.68445,12.61078,8.74225,19.22552,15.1637,10.53168,10.44855,17.46063,18.35822,20.3938,23.75592,12.44989,16.48358,22.55719,36.64508,29.4223,60.57312,2.7442,13.86591,3.87689,24.97357,3.4353,33.31958-.02039,20.55115-7.68213,33.36108-22.5993,38.39697-3.47534,7.59949-7.14404,12.1676-10.81226,13.68652-6.12598,7.9295-23.42444,12.51556-51.75684,13.77759-46.48932-2.91473-71.48053-25.42035-76.07599-67.55182-2.89899-18.39825-1.41302-38.75201,3.37091-60.99139,3.83258-14.98401,9.01007-24.82886,15.87128-29.54437,3.53644-13.97705,8.99591-26.06949,16.28815-36.24533,7.31262-10.1759,18.37048-14.10431,33.96436-11.79245Zm-28.81232,145.02148c14.23907,19.14502,33.55267,28.76343,56.95807,28.9483,22.08911.06256,37.2854-4.00031,45.15765-12.17664,7.52728-13.4856,9.96417-27.62988,7.87897-42.50323-2.99152-17.08917-9.37494-35.5683-18.62775-55.49536-11.62946-17.64539-19.33173-28.01526-23.57715-31.06268-1.75293-2.63391-6.80212-7.13391-14.93762-13.50784-11.78021-7.04941-21.95502-10.32541-30.9588-9.7858-8.21857,1.2262-14.91266,5.96173-20.38312,14.22217-5.4743,8.25818-10.40729,21.43762-15.35236,39.56921-1.9375,12.72723-2.40649,23.04718-1.07324,30.93591,3.59692,25.50635,8.41528,42.46667,14.91534,50.85596Zm39.12854-78.25867c.15808.00372.31616.00751.4743.01123,4.586.10895,10.0993,2.67767,16.67932,7.69287,3.69427,3.8974,6.92706,10.12506,9.64203,18.68335,6.07715,24.74365.53088,37.7804-16.53552,39.14014-.51324-.00763-1.02655-.01532-1.53992-.02295-4.10577-.0614-9.15924-2.57727-15.04321-7.55774-4.36218-5.40192-7.24902-10.9809-8.7439-16.73254-1.97406-7.59314-1.53668-15.25977,1.10999-22.98016,1.61713-6.96246,5.02496-12.57538,10.19958-16.82831,1.98083-.95032,3.22961-1.41858,3.75732-1.40588Zm-3.38275,32.586c-.23621.32843.11401,2.77679,1.04321,7.34375,1.27545,4.62976,3.56561,7.6106,6.89337,8.94159.33557.00568.67126.01129,1.0069.01697,2.91138.04895,3.66113-2.37732,2.24731-7.28076-1.70587-5.90472-5.43634-8.91449-11.1908-9.02155Z"/>
      <path class="cls-8" d="m503.90522,595.57647c.06049-.00031,2.76312,62.60101,8.43317,63.05878,5.84442.44147,38.39081-13.96112,38.21924-13.94562,2.97119,27.85901,5.8634,55.72058,8.6767,83.58417,8.29889.04059,16.59784.0838,24.89667.12958,13.89532-3.03674,27.6474-6.06067,41.25623-9.06812-8.0694-30.92078-15.96808-61.85034-23.69611-92.78876,13.36041-.28418,26.69769-.5448,40.01196-.78094-5.03674-20.20392-10.07361-40.4079-15.11041-60.61182.789-.34503-122.35638,14.80084-122.68744,30.42273Z"/>
      <path d="m627.10224,561.17877c3.21954.07965,4.9599.62286,5.21985,1.62811,2.1369,10.81775,3.59796,21.12207,4.32837,30.91718.73071,9.79645,2.38684,20.47833,5.05261,32.0415-1.89606,2.41681-5.94904,3.82404-12.14142,4.22955-4.30267.18396-8.60944.37048-12.9201.55957-6.92505.62646-10.20496,1.5061-9.81036,2.6283,9.927,28.85309,16.65442,54.8443,19.31628,78.01929.95355,5.43274.69867,8.14331-.76025,8.133-7.55981,3.35931-11.27136,5.74408-10.9986,7.14587,2.039,6.78754.81403,13.52765-3.88702,20.22766-5.25494,8.43347-12.58051,14.48767-21.87439,18.15552-9.53925,4.11499-19.78522,6.21338-30.54755,6.28973-7.83374-.02679-13.60034-4.34467-17.19531-12.95673-4.72186-10.13379-7.43683-22.48315-8.3551-37.04315-1.27106-15.57318-2.04913-29.43134-2.36371-41.57056-1.48059.32959-6.23645,1.93188-14.39178,4.81555-3.15277,1.33453-8.93219,1.98187-17.31744,1.94897-3.69763-2.48822-6.7627-9.92352-9.13483-22.30597-2.44586-28.35443-2.44379-44.18634-.13702-47.49481,3.61597-2.96478,7.1908-5.92743,10.72455-8.88751-.37952-4.75305-.75916-9.50598-1.13873-14.25903.11926-1.79828,1.25647-2.97198,3.40692-3.52124,9.39441-4.54816,24.12952-9.72919,43.75763-15.43591,22.70734-5.66479,49.74469-10.14795,81.16742-13.26489Zm-58.27368,17.85962c-18.0528,3.98962-38.03412,9.90857-60.52399,17.79517.85339,11.07892,1.6145,21.65155,2.27875,31.71655.66235,10.06714,2.28003,16.82104,4.91003,20.26434,2.69177.01581,8.62378-1.91852,17.60449-5.78741,2.01605-1.33301,8.79681-3.75879,20.13287-7.24921,3.76562,16.19373,6.10657,28.62585,6.87555,37.30292.77228,8.67493,2.61432,20.96667,5.6001,36.86859.54822,4.26953,1.09143,9.35168,1.62329,15.24933.07172.50543.69379,1.01349,1.86877,1.52533,7.6861-1.44745,15.33478-2.89142,22.94562-4.33124,9.32635-3.53168,16.73212-6.58844,22.31366-9.18018.86261-2.68048.75214-7.56342-.32629-14.65167-1.07727-7.08752-2.94409-16.16711-5.5672-27.24182-2.6192-11.07343-6.57233-26.37274-11.73431-45.89899,8.59216-2.849,16.20874-4.2135,22.99823-4.10742,8.6377.13599,12.71985-.76721,12.24725-2.72516-1.84375-10.16608-3.08936-21.12836-3.84576-32.87781-.78986-7.02289-1.5473-11.93011-2.2359-14.72467-27.44708,2.15436-46.58563,4.90948-57.16516,8.05334Z"/>
      <path class="cls-8" d="m379.75428,567.52667c-9.77664,39.42645-20.61746,78.81525-32.52246,118.15088,5.34125,9.30292,10.87769,18.6192,16.60919,27.94653,10.77234,1.02753,21.58118,2.06207,32.42639,3.10327,3.66104-4.89343,7.26736-9.78821,10.81903-14.68396,2.21442-10.76959,4.362-21.5412,6.44269-32.31421,9.65204,9.5484,19.62482,19.11383,29.91824,28.69037,13.41531,8.90186,27.22012,17.82007,41.41415,26.74573,4.96381-2.29327,9.8902-4.58551,14.77905-6.8764,9.15442-5.31909,18.14453-10.6333,26.97046-15.94006.646-7.72223,1.25574-15.44366,1.82947-23.16437-7.96399-39.62946-15.42358-79.26715-22.37891-118.90942-15.78815-1.29144-31.50543-2.53351-47.15192-3.72385-5.90125,17.44565-12.24158,34.8967-19.02103,52.34677-6.19473-19.67163-11.95432-39.33044-17.27884-58.97156-13.96979,5.83539-28.255,11.70526-42.85553,17.60028Z"/>
      <path d="m426.47831,545.5021c2.67303,6.90421,5.4212,13.81192,8.24438,20.72256,2.4425,7.19312,4.59644,13.62952,6.41412,19.30792,2.80286-5.28632,8.52402-16.84686,16.3674-34.66901.92535-.67358,1.65961-1.01025,2.20782-1.00958,7.00861,1.36053,16.55804,2.90204,28.71259,4.65643,12.14954,1.75568,19.15466,3.92688,20.91534,6.46857,3.92163,24.86926,8.39282,49.20642,13.52887,73.00946,5.65448,29.81921,10.79437,52.68982,15.22418,68.61298-1.34955,2.85919-8.13934,6.61542-20.64209,11.28577-14.44794,23.49774-30.50885,35.01202-46.25128,34.51654-6.33295-.01776-11.93158-2.367-16.6955-7.04657-5.96158-8.28223-9.25305-16.52771-10.06967-24.7392-5.47165,3.98181-11.38876,7.26062-17.71854,9.83624-3.91766-.00616-8.93091-2.45966-14.89142-7.35498-7.28677,17.07697-23.98239,25.75311-49.5549,26.06226-7.73801-.96167-16.13254-3.74402-25.01453-8.33655-3.77377-1.84839-7.65012-6.13184-11.5112-12.84229-3.22348-6.43207-4.36282-12.97198-3.54474-19.62866,3.06598-16.3374,9.84741-41.4657,19.38055-75.43488,3.414-10.54187,8.04901-21.23804,13.75369-32.09424,5.93524-9.45856,11.53375-14.61005,17.03091-15.44324,2.04898-11.0014,3.5657-17.43402,4.61292-19.2937,9.8392-4.01791,19.53543-7.71646,29.12289-11.09058,9.58224-3.37369,16.31509-5.19894,20.37817-5.49527Zm-74.71329,152.31839c5.41867,1.78302,10.85587,3.42853,16.29892,4.93719,11.1936,3.74615,20.1991,6.5545,26.8689,8.40906,2.48514-14.48901,4.4921-24.68433,6.1109-30.58307,1.95288-8.70758,4.87091-20.75848,8.55966-36.15906,8.02451,12.51636,17.03647,25.80872,27.19708,39.8764,11.83704-13.59381,21.91998-25.52997,30.57111-35.80182,3.66235,17.72693,5.7229,28.75732,5.90338,33.08893,4.15985,24.42377,7.30548,36.63824,9.06042,36.64337,5.27771.01624,12.4668-2.7738,21.31494-8.36346,11.8443-7.09637,18.88947-11.02374,21.55505-11.79877-3.76483-16.93634-6.30548-29.48468-7.76666-37.64343-5.16351-26.2215-8.37909-43.73676-9.97192-52.54572-1.58527-8.80609-3.73419-22.38092-6.3714-40.72498-.93866-1.46704-5.4494-2.75049-13.4931-3.83435-8.04236-1.08215-16.04578-2.19421-24.0011-3.33575-6.28809,13.71191-14.03552,30.01721-23.71255,48.9129-3.32837-8.77167-6.55219-17.53998-9.67126-26.30444-1.21191-5.22565-4.22858-14.2995-8.72702-27.20898-8.00681,2.44849-14.16324,4.57629-18.40195,6.3703-4.23853,1.7959-10.98224,4.01489-20.3204,6.67212-.10287,1.34589-2.42355,12.55621-7.35983,33.61487-4.95587,21.05872-8.81769,37.72388-11.27823,50.01007-3.65942,15.8219-6.10583,25.42615-7.15311,28.8194-1.05209,3.39368-2.77127,9.04382-5.21182,16.94922Z"/>
      <path class="cls-8" d="m284.07664,579.52026c-23.62234,49.64349-49.92154,99.08942-78.89896,148.26123,18.84125,4.96417,38.01105,9.97809,57.50916,15.0307,6.73022-7.99518,13.3269-16.00079,19.78979-24.01562,9.34515.5799,18.70886,1.1651,28.09122,1.75537.00848.00067-.2464,16.37262,12.00836,21.53485,12.68307,5.17792,60.47787-22.79364,60.06442-22.80548-16.92535-51.57941-30.56213-103.01276-40.909-154.18793-18.89838,4.76593-38.11676,9.57892-57.655,14.42688Z"/>
      <path d="m342.68464,561.82354c1.83752-.02466,4.69855,9.88513,9.33954,29.78137,4.67667,19.89966,10.97293,48.98315,20.50412,87.32977,5.33807,17.77094,10.59619,32.19562,15.47388,43.25848-4.92374,3.31006-15.31747,7.40344-31.47079,12.27618-.11044,5.83069-2.45285,12.27881-7.17215,19.33636-6.20535,8.28925-17.18588,13.36786-32.86063,15.24298-18.90018-.0332-34.41434-2.65808-46.2355-7.85352-12.07913,7.12793-22.46646,11.36829-30.85291,12.74609-18.70456,3.36298-35.90732-.27118-50.47395-10.78455-4.4449-3.04333-7.23216-7.24255-8.37045-12.59631-.74376-5.19.2914-11.01202,3.02173-17.47784,3.85579-11.60199,12.78151-29.12225,25.95833-52.64618,16.83218-28.58295,30.58951-52.76593,41.91348-72.47815,5.29404-8.54962,12.21915-13.25189,20.90405-14.07983,2.9462-5.87054,5.85367-11.74432,8.72244-17.62079,2.25238-2.09454,10.23273-4.45319,23.78708-7.04016,13.55246-2.58521,26.14523-5.04797,37.81174-7.39392Zm-34.37808,15.63354c-13.15176,2.31079-20.50461,4.354-21.9166,6.09875-6.31818,14.65326-12.08405,27.64166-17.16934,38.97205-5.08737,11.33203-10.28635,21.54407-15.58502,30.63837-20.66772,39.58081-32.53174,60.56226-33.05008,63.17548-.28214,1.22064,3.71909,3.20746,12.12823,5.97675,8.41104,2.77051,17.74026,6.86462,28.16235,12.30316,4.52911-11.47571,8.07715-19.11584,10.73984-22.91266,24.30136-1.14661,41.02127-2.69434,50.19846-4.67493,1.84149,6.48346,3.60449,14.78766,5.34784,24.91687,20.04993-4.54376,35.81836-9.45245,47.43866-14.72809-5.59317-13.01697-10.30301-27.48059-14.11847-43.38733-6.91733-26.54651-13.13718-53.94177-18.52057-82.16479-2.24289-10.92932-3.58853-17.47119-4.24368-19.64062-6.49503,1.31897-16.26254,3.11987-29.41162,5.427Zm-.0209,44.14935c.43808,4.28772,1.71915,12.93921,4.11124,25.97699.84943,3.11938,2.18359,12.1189,4.29633,27.02307-18.47351,3.61841-29.53735,5.52747-32.8746,5.71558,13.0256-31.27435,20.80759-50.8736,24.46704-58.71564Z"/>
      <path class="cls-8" d="m165.35871,580.97857c.28905.04517,35.79843-13.32422,68.15244-19.1731,32.65454-5.86673,62.15363-4.21286,57.36368,25.46747-10.83948,59.24139-26.22461,61.86469-91.04678,85.96173-3.17502,5.41388-6.38205,10.82428-9.62115,16.23126-2.492,9.79919-4.97693,19.59937-7.4548,29.40033-16.57181,4.43762-33.3631,8.86023-50.37396,13.2619-7.35127.0365-14.70247.07495-22.0536.11523-1.75211-3.85541-3.46463-7.7049-5.13768-11.54822,20.63383-46.49054,40.69112-93.06403,60.17188-139.71661Z"/>
      <path d="m245.1204,554.06817c15.55188-2.71475,26.97083-1.90573,34.68906,2.41669,7.70792,4.32629,11.97232,8.80371,12.60321,13.39569,5.56259,7.3775,4.40201,22.25714-4.38129,44.55798-5.32196,11.13422-10.21857,18.36115-14.55194,21.68982-2.54465,4.58386-10.45889,12.17871-24.33389,22.74774-5.91562,10.09363-9.78006,15.13904-11.3924,15.15472-.24448,1.0542-4.60684,4.83582-13.32242,11.32739-5.73071,2.4834-8.6875,3.97168-8.80826,4.47028-8.05414,2.66492-12.71936,4-13.89697,4.01013-5.40067.81903-8.17776,1.47577-8.31165,1.9729-1.00725,3.72791-2.01442,7.45581-3.02167,11.18378-.80585,2.98218-2.20822,8.1731-4.20793,15.57434-1.34232,1.10852-8.81674,3.73975-22.67172,7.87427-5.6432,9.43347-16.34224,16.56116-32.29355,21.36462-5.90219,1.9314-12.66492,3.39526-20.26959,4.3924-5.7511.00934-11.50217.01923-17.2532.02991-7.25771-1.24261-12.22038-3.29962-14.8853-6.17413-4.96066-4.44647-5.44128-14.56671-1.4043-30.35699,4.02542-15.79169,11.61472-32.59515,22.25186-50.48999,7.66032-12.6601,17.08531-29.31085,28.09186-49.97968.61804-.50232,2.64932-3.70996,6.05559-9.62781,3.43237-3.76459,7.58548-6.26495,12.47449-7.49591,3.06567-.09393,5.34595-2.21576,6.83858-6.36707,5.95427-13.1991,10.84785-19.87769,14.774-20.01849,32.65956-10.34137,57.99318-17.56891,77.22743-21.65259Zm-110.33131,107.84833c-6.86597,14.78925-12.43668,28.98615-16.53009,42.61462-4.10033,13.62653-4.74742,20.43646-1.99287,20.41876,16.65289.81781,37.36774-2.98138,61.17569-11.50421,2.89417-7.66949,7.65112-22.64886,14.25867-44.9389,12.53177-1.26147,24.20486-4.23718,34.85971-8.95337,8.93307-2.98071,15.06473-5.95972,18.47455-8.9361,5.29984-2.66663,12.5419-8.76306,21.4361-18.31116,9.09558-11.71387,13.78802-19.44983,14.50293-23.1795,3.43146-7.43427,5.26184-15.76801,5.64453-24.98535-2.87201-17.70703-16.68878-24.5343-42.57953-20.39966-22.89865,4.81195-48.06216,11.85773-76.17903,21.06244-7.33469,15.17426-18.29245,40.888-33.07065,77.11243Zm104.80327-61.74426c4.85883-.10309,7.18396,3.07709,7.02252,9.5401-1.06668,7.36444-8.3602,14.61957-22.36316,21.74243-11.49643,6.69501-19.44321,10.06573-23.49173,10.13538-1.00211.0166-.41336-3.84863,1.76688-11.59888,2.1785-7.74915,4.00406-14.245,5.47736-19.48596,9.85413-6.85199,20.27875-10.31342,31.58813-10.33307Z"/>
      <path class="cls-8" d="m108.13963,624.53302c8.92038,4.78607,18.05124,9.62115,27.39252,14.50092,7.65247-7.42023,15.17172-14.85675,22.55772-22.30853-.45795.00037,18.83731-57.0293-59.0076-30.89136-.08751-.03003-19.45006,11.40735-35.18682,28.24164-15.41651,16.8924-27.20721,39.18158-4.75526,62.19385-10.88976,2.04633-21.84533,4.08942-32.8667,6.12823-4.88892,3.33789-9.81624,6.66943-14.78198,9.99481-.17632-.00671-72.32867,93.77185,62.21852,55.31879-.29794-.05255,31.00668-7.1684,50.59932-22.8902,20.10837-15.64703,28.50476-39.89984-5.69983-72.50372-5.65961-4.66266-10.57941-27.80353-10.46989-27.78442Z"/>
      <path d="m138.88378,576.5625c14.46846,1.5188,22.91884,9.57507,25.83344,24.18127,1.59091,6.35046,1.33133,11.87488-.93425,16.54938-2.61038,5.22742-5.7088,9.21472-9.30742,11.95874-5.40358,6.10022-14.97386,13.34692-29.0882,21.70428,6.16197,2.90375,11.5916,7.95111,16.45059,15.16577,4.11913,10.22266,5.87621,18.04712,4.87383,23.4126.38852,5.78833-.58777,10.77832-3.01974,14.95776-3.62468,10.42786-10.71654,19.5155-21.57274,27.22565-9.72816,8.0332-23.90056,14.66797-42.66202,19.88953-8.29501,14.77002-20.26649,24.78333-36.0591,30.01703-18.73161,6.80908-39.95022,7.29504-62.47762,1.6579-27.73319-10.87439-31.94364-28.93213-14.77595-54.58643,6.66162-9.16718,12.34991-16.03558,17.09442-20.59888,10.09773-8.92224,17.90733-13.00964,23.71104-12.20575,2.99572-5.08795,6.94593-9.82306,11.80238-14.21393-3.19437-13.50446-2.642-24.31244.96103-32.56537,5.32124-10.40094,14.03513-19.64813,25.79036-27.79663,3.39259-3.4317,8.62126-6.30621,15.64886-8.62262,12.28247-14.25714,26.45108-25.03009,42.43402-32.28674,14.08008-4.8407,25.68326-6.14612,35.29707-3.84357Zm-78.28854,48.50073c-5.24172,9.42596-7.99979,16.54559-8.17026,21.37738-.1772,13.26355,4.62476,22.40881,14.2829,27.42249,14.50562,8.08685,22.54779,13.47504,23.33786,15.99817,2.53636,2.28748,2.68788,5.91272.40279,10.86572-4.33017,9.31024-10.86096,14.70844-19.61613,16.19421-8.73399,2.35248-16.18707,2.14508-22.16589-.59082-5.98889-2.73651-7.00713-8.19427-3.16829-16.39282.99422-2.10413,3.76643-6.72437,8.26694-13.86877-20.16275,1.04071-30.81067,2.67242-31.87331,4.86835-10.31052,11.02563-17.06261,20.73328-19.91401,29.18134-4.63642,16.28638,6.61342,25.52222,33.79028,27.73999,26.19064-.10602,50.58878-5.90033,72.19556-17.53577,12.53091-8.30688,20.52863-17.52417,24.36139-27.6073,4.1972-7.08081,3.87192-17.1106-.31274-29.98895-4.61858-9.33441-10.56596-14.98505-18.1373-16.99097-4.80341-1.19781-9.63727-2.68524-14.47836-4.45898-12.93771-4.60278-17.23383-10.8855-13.30963-18.95184,2.71648-7.28247,7.4297-11.9873,14.05479-14.11975,3.96873-.9787,6.83278-1.49652,8.60637-1.55157,7.202-.22229,14.3765,1.9989,21.78058,6.70612,1.74718,3.26978,3.53203,6.54651,5.35449,9.82983.3295-.00787.65903-.01581.98854-.02374,3.95088-1.28534,9.06865-6.19757,15.22559-14.75812.46873-.87915.937-1.75842,1.40468-2.63782.45958-1.31262.91917-2.62512,1.37877-3.93768,1.08841-7.50446-1.11725-14.36957-6.39903-20.55011-4.13313-4.44116-13.21477-6.39722-27.40036-5.84631-6.6075.25671-13.60307,2.0824-21.0994,5.45789-17.0363,9.11865-30.32179,20.49683-39.3868,34.16986Z"/>
    </g>
    <g>
      <path class="cls-6" d="m685.40058,763.69787c-6.43854,38.08295-12.81012,76.16571-19.1145,114.24866,12.13232-1.3725,24.29382-2.74469,36.48401-4.11707,7.03528-4.56769,14.12122-9.13531,21.25769-13.70306-1.19855-13.31427-2.47784-26.62872-3.83795-39.94299,13.55304,21.14856,26.49176,42.29736,38.81635,63.44592,12.17792-6.08032,24.47406-12.16089,36.88837-18.24115,8.53156-37.11102,17.10199-74.22211,25.71118-111.33319.03613-.00018-45.07239-4.56769-46.56311,0-1.48907,4.56781-10.94562,45.17389-10.93414,45.17389-6.45917-10.9978-13.07623-21.99561-19.85107-32.99341-3.88098-7.89038-7.83044-15.78088-11.84851-23.67126-15.026,6.19861-29.9104,12.39746-44.6532,18.59607-.78595.84589-1.57098,1.69171-2.3551,2.5376Z"/>
      <path d="m732.46931,736.85858c4.32709,1.96454,8.73468,9.63483,13.02521,23.01154,3.37146,7.99811,5.74475,12.88617,7.20776,14.66309,3.92535-2.99274,8.97528-5.63629,15.15448-7.92792.29364-4.86426,1.33563-10.47668,3.14398-16.83801,19.70807.37463,38.81439.58557,57.33752.63147.79364,1.54346-2.00409,15.17798-8.34265,40.90228-1.211,7.06268-4.95074,24.90594-11.21167,53.53076-.89624,6.7818-2.16882,13.91534-3.8092,21.39832-.72858,3.32159-3.68488,6.1037-8.83997,8.34882-4.46405,1.59021-8.91644,3.18054-13.35736,4.77081-5.71631,9.35419-12.70752,15.99591-20.9856,19.92493-9.85046,5.0509-20.83484,7.27246-33.09503,6.66504-5.60492-.93622-10.35175-3.9986-14.29254-9.19073-1.61151-1.21674-4.75995-5.82294-9.5719-13.82117-4.81616,8.091-11.63196,15.48102-20.38611,22.16998-9.99774,5.05109-16.21832,7.57709-18.78864,7.57715-13.15875,1.96442-21.00043,1.1225-23.62628-2.5257-2.2699-1.54346-3.35925-7.4137-3.28876-17.60974,1.60339-22.54431,4.0459-43.61426,7.44592-63.21265,2.23083-12.34778,5.11804-25.30347,8.70221-38.86774,1.09381-5.1922,7.64508-9.65802,19.75812-13.40021,1.00818-6.59491,2.11743-11.66986,3.33215-15.22437,9.9126-6.54755,27.9198-14.87408,54.48834-24.97595Zm-61.88165,137.72034c7.76978-3.32019,21.78589-7.5072,42.24188-12.55835.40021-2.43195,1.19928-10.05585,2.3681-22.87158,1.16718-12.81494,1.67072-23.59631,1.50549-32.34296,4.021,5.80005,10.99829,15.83252,20.55878,30.0979,6.65845,10.29034,14.51294,23.97101,23.24701,41.0426,21.60303-6.22046,33.50732-10.40637,35.38562-12.55835,1.54346-8.69952,2.57544-14.28802,3.10529-16.76782.9837-4.60712,1.96759-9.21405,2.95129-13.82117,4.72626-22.63702,7.37775-36.59869,7.95325-41.88452.83759-3.92859,2.26874-10.65198,4.29584-20.17017,2.02734-9.51764,2.96045-14.55865,2.79938-15.11951-10.32404.00049-23.16193-.04639-38.51819-.14026-2.3255,13.89099-4.24896,24.33423-5.75415,31.32526-1.50665,6.99365-3.26154,16.5929-5.27826,28.80042-3.13666-4.86383-6.59601-10.0556-10.39532-15.5752-9.80573-13.61035-17.9649-29.86377-24.5014-48.76001-1.12231-3.74121-2.27954-6.15015-3.45825-7.22632-22.96387,9.26068-36.90857,16.23065-42.26874,20.90717-6.56946,36.81012-11.92224,72.68414-16.23761,107.62286Z"/>
      <path class="cls-6" d="m659.29603,762.2301c-10.71332-.53784-21.43622-1.07581-32.16864-1.61365-13.93811,9.41766-27.6759,18.83551-41.2132,28.25305-6.2868,8.79706-12.49237,17.59393-18.61664,26.39099-1.25195,5.09424-2.49658,10.18848-3.73383,15.28271-.90857,11.82306-1.81714,23.64606-2.72565,35.46918,1.86212,10.54114,3.67499,21.08215,5.43872,31.62323,16.43854,4.78986,32.73334,9.57977,48.88477,14.36963,9.45459-2.87006,18.9563-5.74017,28.50513-8.61029,0,.00018,24.34595-22.03107,39.54633-50.69208,14.88342-28.66095,20.62134-63.95197-23.91699-90.47278Zm-41.49811,98.70709c-5.54254-.00037-9.42047-5.9873-8.66113-13.37378.75952-7.38568,5.95093-13.37396,11.59619-13.37372,5.6449.00012,9.52319,5.98792,8.66107,13.37372-.86169,7.38623-6.05347,13.37402-11.59613,13.37378Z"/>
      <path d="m647.78053,756.89843c7.13354,1.35699,13.48242,3.27386,19.03314,5.75262,5.43359,2.94653,10.26526,7.0625,14.47357,12.34784,6.57513,8.60657,9.9754,15.17761,10.3559,19.71448,4.96423,13.75134,4.69434,30.77649-.45984,51.07526-4.18384,11.78687-8.39075,21.23462-12.63263,28.34393-9.49933,17.49268-21.55646,28.43713-36.32452,32.83411-5.92078,6.45453-10.66125,10.33636-14.29688,11.6463-8.02759,6.73541-23.82324,10.71014-47.43933,11.92688-36.99274-2.19836-53.59161-20.86121-49.36731-55.98633,1.23572-15.34045,6.86914-32.34314,17.32788-51.00507,7.66711-12.58173,15.95532-20.90717,24.73254-24.97638,8.0271-11.7865,18.09399-22.05273,30.23389-30.7995,12.13416-8.74554,27.0249-12.37079,44.36359-10.87415Zm-81.15015,122.70648c7.84137,15.90173,21.65497,23.82983,41.82617,23.78369,19.10809-.1405,33.74725-3.71851,44.08636-10.73425,12.17175-11.50574,20.84802-23.57312,25.80597-36.20166,5.11932-14.49841,7.93976-30.14355,8.25653-46.93591-3.35968-14.77942-6.73004-23.40906-9.92474-25.88843-.63995-2.19788-3.99762-5.89307-10.15875-11.08502-9.99768-5.65887-20.40015-8.138-31.04059-7.43677-10.03479,1.26306-19.7196,5.43689-28.93286,12.52362-9.21582,7.08533-19.27881,18.27588-29.9754,33.57037-5.90192,10.71155-9.23602,19.36365-10.13239,25.95862-3.55054,21.32819-3.42725,35.47736.1897,42.44574Zm63.86938-66.36975c.16309.00006.32642.00006.4895,0,4.73218.00024,9.44714,2.05896,14.0929,6.17395,2.15247,3.22742,2.76855,8.44275,1.86896,15.64526-4.45844,20.86078-14.78888,31.96881-31.03546,33.32526-.47418-.00006-.94855-.00006-1.42285,0-3.79413.00031-7.6026-2.0578-11.46948-6.17395-2.2959-4.49017-3.2218-9.14349-2.74579-13.96149.62878-6.36096,3.61169-12.81555,9.03027-19.36371,4.1095-5.89288,9.68188-10.68695,16.72662-14.38245,2.43054-.84167,3.92151-1.2627,4.46533-1.26288Zm-15.8327,27.5722c-.35132.28082-.89185,2.33929-1.61896,6.17395-.41107,3.88251.73541,6.36127,3.43457,7.43677h.9563c2.76086-.00006,4.37256-2.05743,4.83246-6.17389.55579-4.95764-1.97913-7.43689-7.60437-7.43683Z"/>
      <path class="cls-6" d="m484.7544,756.90918c-.02393,0-4.08838,52.06897,1.28778,52.42535,5.30786.3559,39.08887-11.82343,39.15613-11.82385-2.04443,23.19574-4.05823,46.3913-6.04077,69.58698h21.40344c12.54199-2.59589,25.14001-5.19171,37.79431-7.78754.74792-25.80292,1.42896-51.60577,2.04291-77.40875,13.6579-.38959,27.32452-.77899,41.00006-1.16858,1.80676-16.91125,3.61377-33.82251,5.42053-50.7337-.30725-.00024-141.71375,14.18872-142.06439,26.9101Z"/>
      <path d="m628.88935,726.64111c3.65149-.00031,5.43164.42108,5.33783,1.26288-1.74579,9.07428-4.01923,17.72638-6.79596,25.95819-2.77783,8.23212-4.77747,17.18903-6.03296,26.87061-2.76904,2.05859-7.34949,3.29712-13.74768,3.71838-4.41571.21045-8.83002.42102-13.24268.63147-7.18506.60822-10.72888,1.37982-10.6441,2.31519,1.95209,24.04095.95097,45.74298-2.66418,65.10693-.55908,4.53729-1.47363,6.80511-2.74432,6.80536-7.45135,2.85352-11.19757,4.86401-11.29285,6.03363.17828,5.65894-2.4726,11.29517-7.86804,16.90814-6.23999,7.06201-13.45349,12.13721-21.68073,15.22437-8.51166,3.46069-17.07037,5.23804-25.75031,5.33203-6.29773.00006-10.36829-3.57831-12.25537-10.73425-2.60999-8.4187-3.45276-18.68628-2.44568-30.7995.82971-12.95538,1.90186-24.48492,3.23059-34.58801-1.41382.28064-6.06238,1.63782-13.89874,4.06915-3.05377,1.12238-8.42267,1.68353-16.11578,1.68378-3.1781-2.05756-5.41833-8.23187-6.7406-18.52179-.19861-23.57288,1.01147-36.73926,3.68982-39.49908,3.9715-2.47894,7.95905-4.95795,11.96283-7.43683.10931-3.95227.21857-7.90454.32788-11.85675.32178-1.49677,1.67114-2.47845,4.04877-2.94666,10.63806-3.83472,27.31873-8.23157,50.2149-13.18976,26.29639-4.95715,58.00574-9.07263,95.10736-12.34747Zm-70.87274,15.92554c-20.84015,3.55499-43.82599,8.67682-68.73096,15.36469-.47284,9.2146-.97089,18.00745-1.49414,26.37952-.52057,8.37286.30157,13.98541,2.4483,16.83801,2.6308,0,8.62006-1.63708,18.04486-4.91107,2.19366-1.12299,9.22809-3.17975,21.18774-6.17395.73114,13.47095.64618,23.81812-.19757,31.04547-.84583,7.22504-1.31201,17.45782-1.42896,30.69385-.25653,3.55505-.65814,7.78772-1.20087,12.69867-.02411.42126.42743.84204,1.35315,1.26282,6.88007-1.2395,13.77484-2.47888,20.68445-3.71838,8.82953-2.99286,16.03607-5.58868,21.58289-7.78754,1.40472-2.24512,2.50177-6.32556,3.28827-12.24225.7851-5.91644,1.36664-13.49371,1.72626-22.73132.36029-9.23694.534-21.99487.47711-38.27173,9.50745-2.47876,17.75818-3.71814,24.69592-3.71838,8.82318.00018,13.31989-.81793,13.48846-2.45557,1.48236-8.51233,3.87628-17.70288,7.22357-27.5722,1.63318-5.89301,2.58118-10.00897,2.82733-12.34747-31.60413,2.33881-53.56396,4.88751-65.97583,7.64685Z"/>
      <path class="cls-6" d="m357.94483,784.46203c-6.32672,32.81952-12.2356,65.6391-17.72656,98.45868,5.97876,7.78192,11.88098,15.56403,17.7066,23.34583,9.29166.86249,18.56894,1.72467,27.832,2.58716,2.83148-4.07666,5.68445-8.15332,8.55893-12.22998,1.46021-8.96625,2.94659-17.93231,4.4592-26.8985,9.17682,7.95117,18.22766,15.90222,27.15259,23.85339,11.6575,7.38568,23.16214,14.7713,34.51389,22.15698,4.29901-1.9198,8.61285-3.8396,12.94135-5.75934,8.18909-4.45087,16.44263-8.90167,24.76068-13.35254,1.50165-6.42859,3.01752-12.85706,4.54742-19.28571-1.98865-32.94702-4.17529-65.89417-6.55994-98.84119-17.21643-.97211-34.46069-1.94403-51.733-2.91614-7.27316,14.51349-14.37393,29.02704-21.30234,43.54053-6.18729-16.36304-12.54538-32.72607-19.07431-49.08911-15.4827,4.81-30.84152,9.61993-46.07651,14.42993Z"/>
      <path d="m408.26161,766.36255c3.16452,5.75281,6.29959,11.50574,9.40512,17.25861,2.69235,5.98724,4.96817,11.34271,6.84344,16.06622,3.00922-4.39612,9.09283-14.00745,18.55927-28.83466,1.06226-.56134,1.90039-.8421,2.51416-.84192,7.79025,1.12231,18.36642,2.38464,31.70462,3.78815,13.3349,1.40314,20.77521,3.15717,22.35571,5.2619.85321,20.67371,2.16571,40.90271,3.89087,60.68695,1.40338,24.78992,2.89606,43.80261,4.55609,57.0387-1.56097,2.38519-7.98199,5.54254-19.15125,9.47137-14.81805,19.59741-28.20563,29.20874-40.91458,28.83502-5.11533.00012-9.55154-1.94116-13.35077-5.82312-4.7034-6.87543-7.40823-13.7276-8.03519-20.5564-4.67731,3.32074-9.63818,6.05707-14.88913,8.20856-3.27728,0-7.49512-2.03455-12.70566-6.10376-5.62503,14.21832-18.66452,21.46869-39.3266,21.74902-6.37506-.79578-13.47968-3.11096-21.38022-6.94562-3.34479-1.54333-7.11499-5.12134-11.35385-10.73425-3.66248-5.37885-5.69586-10.85162-6.05325-16.41705.06122-13.65735,1.88947-34.65735,5.8627-63.00214,1.68674-8.79291,4.66238-17.70282,8.98746-26.73035,4.76572-7.85742,10.06711-12.11292,15.80624-12.7688.86472-9.16718,1.7775-14.52277,2.7106-16.06628,10.3389-3.27319,20.77237-6.29028,31.29065-9.04999,10.51755-2.75928,18.09738-4.25586,22.67355-4.49017Zm-62.51398,126.70557c4.95566,1.49725,9.8685,2.87628,14.73831,4.13934,10.0748,3.13391,17.99149,5.47253,23.81335,7.01581,1.27716-12.06683,2.50281-20.55695,3.6412-25.46747,1.29184-7.24939,3.31815-17.28186,6.15009-30.0979,8.20551,10.43054,16.89429,21.49304,26.00156,33.18488,10.55377-11.31879,20.22729-21.25812,28.89157-29.81726,2.64545,14.73267,3.89093,23.90088,3.84399,27.50201,2.48907,20.29968,4.40399,30.44849,5.89874,30.44873,4.47528-.00012,10.7049-2.33899,18.79156-7.01581,10.81128-5.93951,17.50671-9.23712,19.91895-9.89233-1.24878-14.07788-2.08875-24.50793-2.46259-31.29065-1.65338-21.79498-2.8183-36.35297-3.36981-43.67389-.55414-7.31854-1.13934-18.60272-1.784-33.85101-.84229-1.21606-5.60571-2.25574-14.3075-3.12164-8.69952-.86481-17.39996-1.76569-26.09692-2.70148-7.61569,11.41333-16.45126,24.97681-26.3205,40.69177-3.3316-7.29645-6.70441-14.59296-10.11823-21.8894-1.35867-4.34943-4.66495-11.90277-10.04242-22.66113-8.80823,2.01123-15.46509,3.75427-20.00107,5.22644-4.53333,1.47418-11.75336,3.28693-21.61871,5.43762.04779,1.12256-1.40637,10.45337-4.20609,27.99323-2.79459,17.53912-4.59372,31.43048-5.51541,41.67401-1.63742,13.19-2.69632,21.20026-3.2439,24.0296-.54565,2.8302-1.42041,7.54187-2.6022,14.13654Z"/>
      <path class="cls-6" d="m268.08869,751.70398c-11.79449,41.48792-22.53833,82.97571-32.23157,124.46356,17.66714,4.25836,35.2056,8.51678,52.61526,12.77515,3.85547-6.70898,7.76337-13.41797,11.72375-20.12689,8.2291.50751,16.45084,1.01508,24.66534,1.52252-.00333.00012,2.57932,13.70544,13.5401,18.01794,10.79269,4.31305,48.54025-19.03253,48.70285-19.03296-18.19775-42.97375-37.68683-85.94763-58.46692-128.92139-20.30893,3.7674-40.49179,7.53473-60.54883,11.30206Z"/>
      <path d="m329.12116,737.67541c2.03397.00012,7.17111,8.33789,15.11926,25.01068,7.9324,16.67578,18.35477,41.00806,30.63181,73.00006,6.5278,14.82721,12.17307,26.84735,17.05518,36.0614-4.04129,2.7594-12.71024,6.17358-25.89163,10.2431.49445,4.86383-.85321,10.2431-3.98468,16.13641-4.23401,6.92145-12.48389,11.17877-24.77625,12.7688-15.15845.00024-28.00647-2.17493-38.66513-6.52472-8.35544,5.98621-15.64902,9.56482-22.00208,10.73425-14.09207,2.85205-28.41989-.16418-43.4256-9.05042-4.52679-2.57281-8.13336-6.1275-10.81631-10.66406-2.30121-4.39697-3.388-9.33118-3.22742-14.80341-.57855-9.82257,1.10876-24.64862,5.383-44.48041,5.98392-24.08716,11.82968-44.38586,17.28473-60.8974,2.75546-7.15607,8.69077-11.01483,17.75732-11.57611,1.4155-4.91113,2.84622-9.82214,4.29208-14.73328,1.87393-1.73004,10.01193-3.57758,24.47937-5.54211,14.46616-1.96478,28.06631-3.85822,40.78635-5.6828Zm-34.97104,12.66278c-13.89661,1.75464-21.3446,3.35669-22.39999,4.80621-2.82101,12.25446-5.20731,23.12933-7.20523,32.62366-1.99881,9.49512-4.2576,18.05444-6.78241,25.67792-8.55023,33.20911-12.22638,50.91138-12.02646,53.10986.10864,1.02942,4.19879,2.72522,12.22061,5.08685,8.01953,2.36224,17.09424,5.83392,27.15536,10.41815,1.22302-9.63464,2.59619-16.04285,4.08176-19.22339,21.07349-.88818,35.52032-2.151,43.32568-3.78857,2.6351,5.42615,5.41263,12.37207,8.31271,20.83704,16.39648-3.78857,29.46191-7.88135,39.14279-12.27771-5.89917-10.85083-11.49219-22.91772-16.78339-36.20172-9.34143-22.1701-19.22028-45.08783-29.69547-68.75513-4.2326-9.16663-6.94739-14.66345-8.06461-16.48718-6.94275,1.02899-17.38361,2.42084-31.28137,4.17401Zm9.93375,37.07904c1.35223,3.60187,4.51086,10.87469,9.37039,21.81927,1.4223,2.61975,4.48163,10.17297,9.06683,22.66113-16.55627,2.94659-26.29645,4.49054-29.34885,4.63043,5.10803-26.19196,8.89301-42.56219,10.91162-49.11084Z"/>
      <path class="cls-6" d="m149.76356,786.72406c-.97792-.00012,132.98624-41.61658,137.23792,8.1203,3.99524,49.73737-11.67407,51.76691-63.4437,71.56012-1.02536,4.56763-2.03818,9.13538-3.03845,13.703,1.20734,8.30597,2.41193,16.612,3.6138,24.91803-12.60651,3.68726-25.12683,7.37451-37.56099,11.06171h-18.34479c-3.11308-3.31305-6.24168-6.62616-9.38577-9.93921-3.25192-39.80798-6.27792-79.61597-9.07802-119.42395Z"/>
      <path d="m226.36647,765.83178c16.60077-1.91821,29.96747-.96985,39.92529,2.84064,9.96234,3.81287,15.86389,7.65979,17.78436,11.54144,8.11374,6.31396,10.27695,18.80212,6.84045,37.46454-2.63632,9.30798-5.60934,15.34143-8.97379,18.10083-1.28326,3.83508-7.07159,10.15015-17.12823,18.94275-2.69897,8.46625-4.74982,12.69879-6.22693,12.69867.09137.88855-2.85052,4.04614-8.7327,9.47137-4.39746,2.05847-6.56097,3.29712-6.51569,3.71838-6.35123,2.19824-10.03098,3.29749-11.07642,3.29742-4.51953.65546-6.75,1.19257-6.69962,1.61365.37881,3.15717.7576,6.31427,1.13644,9.47137.30298,2.52594.83026,6.92181,1.58258,13.18976-.76129.935-6.24597,3.133-16.35898,6.59485-1.37253,7.9978-7.61069,14.0321-18.63766,18.10089-4.02605,1.63623-8.88255,2.87585-14.57236,3.71838h-13.81381c-6.34662-1.07605-11.24976-2.85352-14.71494-5.33203-6.02602-3.83551-11.18349-12.55829-15.48412-26.16907-4.2961-13.6106-6.21916-28.08679-5.56252-43.42798.5943-10.85095.92932-25.11694,1.0764-42.79657.36243-.42126.71069-3.15723,1.0596-8.20856,1.53429-3.1803,4.55208-5.23828,9.04739-6.17389,3.16841.00073,4.47087-1.77722,3.90369-5.33203-.5439-11.27179,1.33403-16.90814,5.60016-16.9082,30.65236-7.95056,56.32579-13.4231,76.54137-16.41663Zm-67.89529,90.08289c.44008,12.62854,1.94026,24.7782,4.42946,36.44763,2.48982,11.66864,4.88136,17.50433,7.19341,17.50409,14.42149.79523,30.17316-2.36176,47.63501-9.47137-.19696-6.50067-1.31909-19.19977-3.36105-38.09595,11.14728-.93536,20.94269-3.34418,29.44904-7.22632,7.43869-2.43152,12.36014-4.88721,14.73007-7.36658,4.26535-2.19806,9.40402-7.27203,15.53156-15.22437,5.75604-9.77509,8.58502-16.22968,8.32092-19.36371,1.55063-6.22015,1.32114-13.21283-.74881-20.97736-7.69299-14.96686-25.46283-21.00006-52.86676-18.10083-23.68085,3.55499-48.55428,8.9101-74.35028,16.06628-.28201,12.90906,1.039,34.8457,4.03745,65.80847Zm78.56998-51.00507c5.02966.00006,8.51392,2.73627,10.43417,8.2085,1.2912,6.22119-3.83441,12.25415-15.18246,18.10083-9.01526,5.51984-15.41144,8.27924-19.32538,8.27869-.96402-.00024-1.85654-3.28503-2.6778-9.85687-.82056-6.57086-1.5083-12.07867-2.06332-16.52264,7.3967-5.65894,17.04135-8.39526,28.81479-8.2085Z"/>
      <path class="cls-6" d="m126.26068,786.49988c11.92639,4.3985,23.77057,8.79694,35.53252,13.1955,4.01743-6.25946,8.08707-12.51886,12.20895-18.7782.18054,0-8.26804-48.66528-80.99237-28.64661-.72696.00006-56.11346,37.2746,14.4005,78.38348-9.09872,1.60754-18.17157,3.21509-27.21854,4.82269-2.49461,2.85541-4.97417,5.71088-7.43871,8.56628.06938-.00037-5.33437,81.83984,84.3938,48.68988-1.0486.00031,90.82132-24.52289-5.49947-81.87213-7.67618-4.11121-25.34378-24.36084-25.38669-24.3609Z"/>
      <path d="m132.01065,745.54113c17.24707,1.82428,31.06769,9.07391,41.27376,21.74872,4.79575,5.51978,7.07681,10.26685,6.90831,14.24213-.27231,4.44397-1.59875,7.81091-3.97154,10.10278-2.63087,5.146-8.88197,11.20215-18.60675,18.17102,7.48552,2.61945,15.19368,7.06281,23.05667,13.33008,8.49393,8.83966,13.32047,15.55267,14.63486,20.13544,2.75189,4.95813,3.86957,9.21497,3.38913,12.7688.97238,8.88666-1.64944,16.60431-7.74881,23.15222-5.01636,6.82849-14.12381,12.46411-27.26489,16.9082-.241,12.67474-5.36234,21.28119-15.30873,25.81824-11.56985,5.89349-27.47198,6.40753-48.1675,1.54346-27.53224-9.40149-42.68114-25.37378-44.61264-47.91809-.187-8.04382.3567-14.05469,1.62096-18.0307,3.20346-7.76361,7.77086-11.24847,13.59154-10.45361-.49136-4.44299.12891-8.55933,1.88248-12.34784-11.63542-11.97345-18.65816-21.58466-20.79489-28.83508-1.93909-9.12073.35574-17.11865,7.02689-23.99414,1.16465-2.94666,4.69772-5.33215,10.61681-7.15613,3.33649-12.25385,11.6571-21.28131,24.98967-27.08075,12.74382-3.74146,25.30205-4.44299,37.4847-2.10474Zm-54.74446,40.13019c.77596,8.18555,2.63554,14.40625,5.5421,18.66211,8.29544,11.69348,18.4071,19.80835,30.38255,24.34491,18.2923,7.29633,28.29703,12.04413,30.32388,14.24213,3.48633,2.01111,5.40417,5.14526,5.77298,9.40125.65118,7.9978-2.48465,12.60474-9.39905,13.82117-6.47559,1.96442-13.03619,1.73077-19.75589-.70154-6.71768-2.43146-10.67737-7.2027-11.83861-14.31232-.28542-1.82385-.39015-5.823-.29448-11.99707-18.11412.60809-26.96367,1.87091-26.57779,3.78851-2.6913,9.5415-2.66508,18.00781-.05974,25.39734,5.87146,14.26495,20.64456,22.40363,44.30727,24.4151,21.70706-.00024,39.11215-4.93457,52.60161-14.80341,7.13434-7.06201,10.35864-14.89709,9.52983-23.50305.74617-6.03424-3.65584-14.61591-13.46428-25.74811-8.61639-8.09125-17.18298-13.07257-25.58235-14.94373-5.29008-1.12262-10.79411-2.50177-16.51805-4.13934-15.20906-4.25574-23.30247-9.86841-24.11562-16.83795-1.577-6.31439.46542-10.31342,6.15657-11.99707,3.57967-.74805,6.28917-1.12231,8.11816-1.12256,7.42635-.00018,16.24559,2.12885,26.35561,6.3844,3.51451,2.87653,7.01427,5.75287,10.49928,8.62946h.98944c3.36192-1.02893,6.12645-5.16785,8.34369-12.41797.05772-.74835.11565-1.49677.17375-2.24512-.16219-1.12256-.32439-2.245-.48659-3.36755-2.54349-6.45453-8.31284-12.44098-17.39888-17.96057-6.88388-3.97559-18.09378-5.96313-33.56787-5.96307-7.20221-.00037-13.8902,1.35645-20.01938,4.06885-13.02278,7.43683-19.63515,17.0722-20.01816,28.90521Z"/>
    </g>
    <path class="cls-21" d="m502.8157,690.87102l8.11378-19.30675-8.11378-15.87479-21.33351-13.88993h-35.68015l-22.3603,15.65379-23.98858,30.69127s-46.75186,161.92289,65.87569,108.30137v14.11093l37.48686-10.15233.70555-20.18616,7.40824-16.93311,15.16925-3.52773v-30.26339l-29.28017.4389-39.55067-.4389.69813,6.96949,2.16413,16.23844-7.76101,3.52773-8.59299.70555-6.92903-18.34421,6.11474-19.7553,7.64342-16.6479,13.39261-8.399,15.5348,1.41109,12.69983,6.9879,10.5832-11.31695Z"/>
    <path d="m462.58612,636.52224c8.67269-.26125,17.81642,1.85527,27.43122,6.34797,12.74818,6.89699,19.9852,13.27309,21.70945,19.12348,2.1945,5.1221,2.926,9.32702,2.1945,12.61876-1.41075,4.44205-4.57227,11.41701-9.48296,20.9257,0,1.09805-2.2998,5.09477-6.89699,11.99176-.68005,4.1808-3.4485,8.62124-8.30774,13.32373-.4188,0-.86253.44453-1.33278,1.33197v1.41155c4.59719.46945,17.00776.78295,37.22848.9405,3.4485,0,5.58994,2.58597,6.42674,7.75871,0,1.30705-.15675,2.53533-.47025,3.68322,0,.2098.15675,2.22183.47025,6.03527-.3135,9.40499-.47025,15.51823-.47025,18.33973-.627,1.881-2.6133,3.57952-5.95649,5.09397-.627.10611-.9405.39228-.9405.86253v4.15347c-1.72425,6.42755-3.8673,10.42426-6.42674,11.99176,0,1.0458-3.37052,2.11572-10.11076,3.21377l-.47025,2.27247c.627,3.18644,1.09725,5.17274,1.41075,5.95649,0,7.99424-1.54178,11.99096-4.62372,11.99096-6.11324.88825-9.79726,1.80302-11.05126,2.74352l.47025.9405v5.01599c-2.45655,12.90493-5.1213,19.69742-7.99424,20.37747-2.87375.67845-4.33755,1.09725-4.38899,1.254-7.73299.3135-13.87196.47025-18.4177.47025h-11.91299c-4.02405-1.09725-6.32305-3.2403-6.89699-6.42674-7.21049,2.97825-15.33576,4.36166-24.37459,4.15347-16.56403,0-31.27159-4.46697-44.12507-13.40171-10.29404-8.77799-15.36148-21.3453-15.20473-37.69873-.3135-21.83887,2.48107-44.04589,8.38611-66.61786,8.25509-27.74552,21.08285-43.07967,38.48208-46.00647,11.07658-16.30198,22.72872-26.51644,34.95521-30.64499,7.00069-3.23869,13.89768-4.41472,20.69097-3.52647Zm-68.49967,101.8094c-1.51605,10.60754.18247,22.3895,5.09437,35.34668,8.62124,16.87593,19.95867,25.31469,34.01471,25.31469h5.95649c5.69404-.627,11.20761-2.16877,16.5371-4.62372,0-.26205,4.44044-2.7178,13.32373-7.36724l.47025.9405v9.16946c0,1.672.627,2.76925,1.881,3.29255h8.22896c12.85348-.68005,19.28023-2.22183,19.28023-4.62452.3135-.5233.47025-1.28133.47025-2.27247v-6.03527c-.57555-2.92519-1.17522-8.43716-1.80222-16.5367,0-6.42755,1.38342-9.64052,4.15347-9.64052l21.08325-4.15347.47025-.9405v-11.91299c0-7.05455-.75803-10.58101-2.27327-10.58101l-15.20473-.47025c-7.57624,0-22.12825.15675-43.65442.47025l-.9405,1.41075c.627,12.17504.9405,18.75853.9405,19.75048-2.14305,3.6583-5.04332,5.48624-8.70002,5.48624h-5.09397l-5.95649-2.27247c-4.4943-4.44044-6.94964-9.35274-7.36724-14.73448l-1.01887-9.17027c.67845-8.30774,2.24594-14.44671,4.70249-18.4177l5.09437-8.22977c6.16469-8.88169,10.29243-13.32373,12.38323-13.32373,2.92519-2.45494,5.82547-3.68402,8.69921-3.68402,12.69673,0,21.60495,2.14386,26.72624,6.42755h1.33197c8.56899-13.74173,12.74818-22.88547,12.53998-27.43202-2.03775-5.85039-5.19927-10.44918-9.48296-13.79398-14.42098-8.62044-27.40549-11.93871-38.95273-9.95321-7.47254-.2082-15.12595,2.69208-22.96344,8.69921-6.74024,4.4951-11.99136,9.98135-15.75336,16.45953-5.90505,8.72654-11.52111,19.54228-16.8506,32.44641-3.08355,5.95649-5.5389,17.60903-7.36724,34.95601Zm49.68969-7.36804v.9405c0,1.41155.12942,2.9276.39147,4.54655l-.39147,2.74272c.57395.99355.86172,2.53533.86172,4.62372,3.60525-3.135,6.37449-4.96294,8.30774-5.48544l-.47025-.9405v-1.881c0-7.00149.47025-10.50304,1.41075-10.50304,1.30544,0,5.12049-.46945,11.44274-1.40994,0-.7315-2.14305-1.3585-6.42674-1.881-9.82379,0-14.73448,2.6133-14.73448,7.83749-.26205,0-.39147.46945-.39147,1.40994Z"/>
  </g>
</svg>