<?xml version="1.0" encoding="UTF-8"?>
<svg id="svg2" xmlns="http://www.w3.org/2000/svg" viewBox="0 0 88.21575 16.65126">
  <defs>
    <style>
      .cls-1 {
        fill: none;
      }

      .cls-1, .cls-2 {
        stroke: #925100;
        stroke-miterlimit: 1.43656;
        stroke-width: .71828px;
      }

      .cls-2 {
        fill: #ff9e25;
      }
    </style>
  </defs>
  <path id="path3631" class="cls-2" d="m44.23377.81567c-1.1082-.0241-1.64957,4.28346-2.56028,4.91555-.91071.6319-5.13535-.36895-5.50059.67759-.36535,1.04653,3.56421,2.89255,3.88374,3.95414.31954,1.06141-1.93781,4.7701-1.0554,5.44097s3.85249-2.49595,4.96045-2.47185c1.1082.0241,3.93761,3.31698,4.84839,2.68508.91071-.6319-1.18333-4.43502-.81797-5.48155s4.37145-2.72002,4.05182-3.78138c-.31954-1.06141-4.5837-.24512-5.46611-.91599s-1.23606-4.99815-2.34425-5.02222l.00021-.00033Z"/>
  <path id="path3633" class="cls-2" d="m26.52477.81567c-1.1082-.0241-1.64957,4.28346-2.56028,4.91555-.91071.6319-5.13535-.36895-5.50059.67759-.36535,1.04653,3.56421,2.89255,3.88374,3.95414.31954,1.06141-1.93781,4.7701-1.0554,5.44097s3.85249-2.49595,4.96045-2.47185c1.1082.0241,3.93761,3.31698,4.84839,2.68508.91071-.6319-1.18333-4.43502-.81797-5.48155s4.37145-2.72002,4.05182-3.78138c-.31954-1.06141-4.5837-.24512-5.46611-.91599s-1.23606-4.99815-2.34425-5.02222l.00021-.00033Z"/>
  <path id="path3635" class="cls-2" d="m8.81577.81567c-1.1082-.0241-1.64957,4.28346-2.56028,4.91555-.91071.6319-5.13535-.36895-5.50059.67759-.36535,1.04653,3.56421,2.89255,3.88374,3.95414.31954,1.06141-1.93781,4.7701-1.0554,5.44097s3.85249-2.49595,4.96045-2.47185c1.1082.0241,3.93761,3.31698,4.84839,2.68508.91071-.6319-1.18333-4.43502-.81797-5.48155s4.37145-2.72002,4.05182-3.78138c-.31954-1.06141-4.5837-.24512-5.46611-.91599S9.92376.84007,8.81556.816l.00021-.00033Z"/>
  <path id="path3637" class="cls-2" d="m61.93877.81567c-1.1082-.0241-1.64957,4.28346-2.56028,4.91555-.91071.6319-5.13535-.36895-5.50059.67759-.36535,1.04653,3.56421,2.89255,3.88374,3.95414.31954,1.06141-1.93781,4.7701-1.0554,5.44097s3.85249-2.49595,4.96045-2.47185c1.1082.0241,3.93761,3.31698,4.84839,2.68508.91071-.6319-1.18333-4.43502-.81797-5.48155s4.37145-2.72002,4.05182-3.78138c-.31954-1.06141-4.5837-.24512-5.46611-.91599s-1.23606-4.99815-2.34425-5.02222l.00021-.00033Z"/>
  <path id="path3639" class="cls-1" d="m79.64877.81567c-1.1082-.0241-1.64957,4.28346-2.56028,4.91555-.91071.6319-5.13535-.36895-5.50059.67759-.36535,1.04653,3.56421,2.89255,3.88374,3.95414.31954,1.06141-1.93781,4.7701-1.0554,5.44097s3.85249-2.49595,4.96045-2.47185c1.1082.0241,3.93761,3.31698,4.84839,2.68508.91071-.6319-1.18333-4.43502-.81797-5.48155s4.37145-2.72002,4.05182-3.78138c-.31954-1.06141-4.5837-.24512-5.46611-.91599s-1.23606-4.99815-2.34425-5.02222l.00021-.00033Z"/>
</svg>